<?xml version="1.0" encoding="UTF-8"?>
<svg id="Layer_1" data-name="Layer 1" xmlns="http://www.w3.org/2000/svg" viewBox="0 0 286.81 44.84">
  <defs>
    <style>
      .cls-1 {
        fill: #7f3f98;
      }

      .cls-1 {
        stroke-width: 0px;
      }

      
    </style>
  </defs>
 
  <g>
    <path class="cls-1" d="M40.99,4.84l4.7,37.05h-5.76l-3.93-33.35h-.12l-8.81,28.6c-1.11,3.52-1.76,4.76-4.23,4.76s-3.17-1.23-4.23-4.7L9.81,8.54h-.12l-3.94,33.35H0L4.76,4.49C5.11,1.61,7.16.09,9.34.09c2.41,0,3.93.94,5.05,4.64l8.4,27.83h.12L31.06,5.49c.65-2.18,1.23-3.47,2-4.23.94-.94,2.05-1.17,2.94-1.17,3.11,0,4.64,1.94,4.99,4.76ZM107.74,19.87c2.82-1.82,4.11-4.58,4.11-8.28,0-7.16-5.4-11.51-13.33-11.51-7.52,0-13.04,6.11-13.04,12.51v29.3h5.52V13.06c0-4.46,2.64-7.81,7.99-7.81,4.23,0,7.34,2.41,7.34,6.58,0,3.47-2.7,6.23-7.34,6.23h-5.87v5.17h7.05c4.87,0,8.04,2.23,8.04,6.75s-2.58,6.75-7.99,6.75h-7.1v5.17h8.46c6.93,0,12.16-4.64,12.16-11.63,0-4.93-1.76-7.98-5.99-10.39ZM119.33,41.89h5.52V.79h-5.52v41.1ZM138.74,27.51V.79h-5.52v28.07c0,7.52,5.17,13.03,12.8,13.03h6.4v-5.17h-5.58c-5.4,0-8.1-3.11-8.1-9.22ZM204.44.09c-8.28,0-14.03,6.46-14.03,15.44v26.36h5.52V15.23c0-6.05,3.29-9.98,8.52-9.98,4.35,0,8.52,2.7,8.52,10.51v2.29h-14.8v5.17h14.8v18.67h5.52V15.53c0-9.1-5.81-15.44-14.03-15.44ZM250.19,33.79h-.11l-13.39-27.65c-1.23-2.7-2.23-4.11-3.05-4.76s-1.82-.94-3.06-.94c-2.94,0-4.81,1.59-4.81,4.88v36.58h5.52V8.19h.11l14.56,29.94c1,2.06,1.7,2.94,2.47,3.4.82.53,1.82.71,3.05.71,3,0,4.23-1.82,4.23-3.88V.79h-5.52v33ZM283.93,23.92c-1.94-2.06-5.35-3.99-10.34-6.28-5.16-2.35-7.45-4.29-7.45-6.75,0-3.35,2.05-4.93,4.81-4.93h14.03V.79h-13.21c-6.58,0-11.16,3.88-11.16,10.34,0,2.64.94,4.87,2.94,6.87,2,2.05,5.29,3.76,10.27,6.04,4.99,2.29,7.46,4.47,7.46,7.34,0,3.7-2.17,5.34-6.64,5.34h-14.32v5.17h15.27c6.87,0,11.22-4.23,11.22-10.98,0-2.64-1-4.99-2.88-6.99ZM184.87,15.09v12.83c0,8.73-6.36,15.09-14.56,15.09s-14.55-6.54-14.55-15.09v-12.83C155.76,6.42,162.05,0,170.31,0s14.56,6.24,14.56,15.09ZM178.81,15.09c0-5.7-2.91-9.51-8.56-9.51s-8.44,3.63-8.44,9.51v12.83c0,5.76,2.97,9.51,8.5,9.51s8.5-3.8,8.5-9.51v-12.83Z"/>
    <g>
      <path class="cls-1" d="M56.4,22.01v-6.92c0-5.88,3.03-9.51,8.44-9.51.93,0,3.36.02,5.52,1.76,1.94,1.57,2.62,3.69,2.86,5.14.03.22.06.44.09.66.02.23.04.43.04.58-1.25-.22-2.5-.44-3.75-.66l7.01,7.2,6.77-7.42c-1.3.29-2.6.58-3.91.87-.09-.48-.18-.96-.27-1.44h0c-1.21-7.33-7.11-12.29-14.31-12.29-8.26,0-14.55,6.42-14.55,15.09v7.28l3.3-3.39,2.76,3.03Z"/>
      <path class="cls-1" d="M73.4,19.56v8.36c0,5.7-2.91,9.51-8.5,9.51s-8.37-3.62-8.48-9.21c0-.14-.01-.29-.02-.43,1.33.3,2.66.6,3.99.9l-6.77-7.42-7.01,7.2,3.71-.62c.02.45.04.89.06,1.34h.01c.58,7.92,6.54,13.82,14.5,13.82s14.56-6.36,14.56-15.09v-8.13l-2.82,3.09-3.24-3.33Z"/>
    </g>
  </g>
</svg>